<?xml version="1.0" standalone="no"?>
<!DOCTYPE svg PUBLIC "-//W3C//DTD SVG 20010904//EN"
 "http://www.w3.org/TR/2001/REC-SVG-20010904/DTD/svg10.dtd">
<svg version="1.0" xmlns="http://www.w3.org/2000/svg"
 width="508.000000pt" height="174.000000pt" viewBox="0 0 508.000000 174.000000"
 preserveAspectRatio="xMidYMid meet">
<metadata>
Created by potrace 1.16, written by Peter Selinger 2001-2019
</metadata>
<g transform="translate(0.000000,174.000000) scale(0.100000,-0.100000)"
fill="#000000" stroke="none">
<path d="M3064 1710 c-12 -5 -29 -19 -38 -32 -30 -42 -20 -67 54 -141 39 -39
70 -75 70 -81 0 -5 -29 -40 -65 -77 -51 -52 -65 -74 -65 -97 0 -42 43 -76 85
-68 38 8 245 211 245 241 0 21 -206 233 -245 253 -11 5 -29 6 -41 2z"/>
<path d="M510 1366 c0 -8 16 -18 36 -23 21 -4 42 -16 47 -25 8 -12 -12 -102
-82 -365 -52 -191 -100 -366 -108 -388 -18 -52 -59 -93 -100 -101 -18 -3 -33
-12 -33 -20 0 -11 28 -14 145 -14 112 0 145 3 145 13 0 7 -20 18 -45 25 -50
13 -70 43 -59 90 19 90 160 622 164 622 3 0 28 -171 55 -380 l50 -381 24 3
c21 3 68 71 280 404 141 221 257 400 259 399 1 -1 -40 -161 -93 -356 -68 -250
-102 -360 -116 -375 -12 -13 -38 -26 -59 -29 -21 -4 -41 -13 -44 -21 -5 -12
29 -14 219 -14 185 0 225 2 225 14 0 8 -15 17 -34 20 -46 9 -59 27 -51 68 23
104 197 743 210 767 15 30 23 34 83 46 18 4 32 13 32 21 0 12 -27 14 -166 12
l-167 -3 -205 -322 c-113 -177 -208 -320 -211 -317 -3 3 -21 148 -41 322 l-36
317 -162 3 c-135 2 -162 0 -162 -12z"/>
<path d="M2582 1339 c-18 -6 -58 -13 -88 -17 l-55 -7 -33 -75 c-48 -108 -96
-185 -167 -268 -49 -57 -59 -76 -50 -85 10 -9 23 0 63 42 27 30 65 77 85 105
19 28 32 42 29 31 -3 -11 -51 -182 -106 -380 -55 -198 -107 -379 -115 -401
-15 -40 -25 -48 -87 -68 -10 -3 -18 -11 -18 -18 0 -10 46 -13 210 -13 187 0
210 2 210 16 0 11 -12 18 -40 23 -26 4 -45 14 -56 30 -14 23 -14 31 6 104 l22
80 34 -14 c18 -8 62 -14 97 -14 129 0 252 95 327 252 40 82 70 203 70 277 0
60 -27 134 -60 166 -26 25 -40 30 -95 33 -81 5 -114 -8 -165 -65 l-39 -44 10
38 c9 33 60 215 75 266 6 19 -11 21 -64 6z m118 -321 c23 -85 -18 -290 -83
-413 -38 -71 -103 -140 -139 -147 -33 -6 -68 8 -68 27 0 28 79 297 107 365 54
129 112 210 152 210 15 0 23 -10 31 -42z"/>
<path d="M4340 1324 c-19 -8 -56 -36 -82 -62 l-48 -46 -35 34 -35 34 -30 -29
c-37 -36 -37 -44 0 -80 l30 -29 -49 -51 c-60 -62 -71 -82 -71 -136 0 -78 62
-139 142 -139 38 0 107 40 153 89 l29 32 218 -218 c216 -216 235 -242 206
-271 -26 -26 -54 -11 -150 85 l-98 97 -30 -29 c-16 -16 -30 -34 -30 -40 0 -6
43 -53 95 -105 101 -100 110 -120 67 -148 -21 -14 -26 -11 -127 89 l-105 103
-35 -34 -35 -34 100 -101 c55 -55 100 -107 100 -116 0 -19 -31 -49 -49 -49 -7
0 -46 31 -85 70 -66 63 -72 73 -68 103 4 39 -14 81 -51 115 -24 22 -24 25 -10
54 19 37 12 101 -14 137 -50 67 -134 76 -211 21 l-45 -32 -123 123 -124 123
-30 -29 c-16 -16 -30 -34 -30 -40 0 -5 54 -64 119 -129 l120 -119 -35 -41
c-42 -49 -57 -99 -44 -146 12 -43 54 -87 97 -101 22 -7 33 -17 33 -29 0 -27
55 -87 93 -101 22 -8 38 -25 52 -53 49 -102 166 -114 250 -26 20 21 32 27 44
21 17 -10 50 -14 93 -12 36 1 94 53 108 96 8 25 19 35 40 40 32 7 86 63 96 98
3 13 22 30 47 42 73 35 104 109 77 181 -10 26 -6 33 97 136 l107 108 -34 35
-34 35 -108 -107 -108 -108 -187 187 -187 187 24 26 24 26 -37 36 -37 37 -113
-112 c-117 -115 -134 -124 -158 -81 -6 12 -6 25 0 37 16 29 257 262 272 262 7
0 51 -37 96 -82 l83 -83 52 53 53 52 -33 32 c-29 29 -34 31 -53 19 -20 -12
-26 -8 -73 38 -45 44 -96 72 -131 71 -5 -1 -26 -8 -45 -16z m-182 -726 c27
-27 11 -55 -77 -141 -49 -48 -95 -87 -103 -87 -23 0 -51 36 -44 58 10 29 171
182 193 182 10 0 24 -5 31 -12z"/>
<path d="M1903 1126 c-116 -37 -238 -154 -302 -288 -122 -257 -61 -427 156
-428 118 0 221 50 290 139 29 39 32 46 17 54 -12 7 -25 1 -52 -26 -76 -72
-174 -98 -223 -58 -21 17 -24 29 -27 103 l-4 84 59 18 c178 55 326 164 352
257 16 58 8 99 -25 130 -22 21 -37 24 -112 26 -53 2 -104 -3 -129 -11z m107
-64 c0 -27 -7 -70 -16 -96 -21 -60 -105 -153 -173 -189 l-50 -28 15 53 c27 91
86 200 139 256 66 67 85 68 85 4z"/>
<path d="M3259 1121 c-179 -70 -308 -288 -297 -500 5 -94 27 -144 81 -179 38
-25 49 -27 146 -27 97 0 111 3 166 29 154 76 265 272 265 470 0 113 -28 169
-102 207 -51 26 -193 26 -259 0z m151 -21 c26 -16 19 -185 -14 -305 -43 -161
-118 -304 -178 -340 -56 -33 -77 27 -58 165 24 179 97 366 174 445 45 47 52
51 76 35z"/>
<path d="M410 204 c-135 -7 -278 -13 -319 -13 l-74 -1 6 -71 c3 -39 7 -72 9
-73 2 -1 167 6 368 15 201 10 386 18 413 18 l47 1 0 70 0 70 -102 -1 c-57 -1
-213 -8 -348 -15z"/>
</g>
</svg>
